<svg width="33" height="32" viewBox="0 0 33 32" fill="none" xmlns="http://www.w3.org/2000/svg">
<path d="M16.4818 7.7956C11.9404 7.7956 8.27735 11.4587 8.27735 16C8.27735 20.5413 11.9404 24.2044 16.4818 24.2044C21.0231 24.2044 24.6861 20.5413 24.6861 16C24.6861 11.4587 21.0231 7.7956 16.4818 7.7956ZM16.4818 21.3339C13.547 21.3339 11.1478 18.9419 11.1478 16C11.1478 13.0581 13.5399 10.6661 16.4818 10.6661C19.4236 10.6661 21.8157 13.0581 21.8157 16C21.8157 18.9419 19.4165 21.3339 16.4818 21.3339ZM26.9354 7.46C26.9354 8.52393 26.0785 9.37365 25.0217 9.37365C23.9578 9.37365 23.1081 8.51679 23.1081 7.46C23.1081 6.40321 23.965 5.54636 25.0217 5.54636C26.0785 5.54636 26.9354 6.40321 26.9354 7.46ZM32.3693 9.40221C32.2479 6.83878 31.6624 4.56811 29.7844 2.69731C27.9136 0.826509 25.643 0.240991 23.0795 0.112462C20.4376 -0.0374874 12.5188 -0.0374874 9.87682 0.112462C7.32053 0.23385 5.04986 0.819368 3.17192 2.69017C1.29398 4.56097 0.7156 6.83164 0.587072 9.39507C0.437122 12.037 0.437122 19.9558 0.587072 22.5978C0.70846 25.1612 1.29398 27.4319 3.17192 29.3027C5.04986 31.1735 7.31339 31.759 9.87682 31.8875C12.5188 32.0375 20.4376 32.0375 23.0795 31.8875C25.643 31.7661 27.9136 31.1806 29.7844 29.3027C31.6552 27.4319 32.2408 25.1612 32.3693 22.5978C32.5192 19.9558 32.5192 12.0442 32.3693 9.40221ZM28.9561 25.4326C28.3992 26.8321 27.321 27.9103 25.9143 28.4744C23.8079 29.3098 18.8095 29.117 16.4818 29.117C14.154 29.117 9.14849 29.3027 7.04919 28.4744C5.64966 27.9174 4.57145 26.8392 4.00736 25.4326C3.17192 23.3261 3.36471 18.3278 3.36471 16C3.36471 13.6722 3.17906 8.66674 4.00736 6.56744C4.56431 5.16791 5.64252 4.0897 7.04919 3.52561C9.15563 2.69017 14.154 2.88296 16.4818 2.88296C18.8095 2.88296 23.815 2.69731 25.9143 3.52561C27.3138 4.08256 28.392 5.16077 28.9561 6.56744C29.7916 8.67388 29.5988 13.6722 29.5988 16C29.5988 18.3278 29.7916 23.3333 28.9561 25.4326Z" fill="#FAFAFA"/>
</svg>
